<?xml version="1.0" standalone="no"?>
<!DOCTYPE svg PUBLIC "-//W3C//DTD SVG 20010904//EN"
 "http://www.w3.org/TR/2001/REC-SVG-20010904/DTD/svg10.dtd">
<svg version="1.0" xmlns="http://www.w3.org/2000/svg"
 width="256.000000pt" height="256.000000pt" viewBox="0 0 256.000000 256.000000"
 preserveAspectRatio="xMidYMid meet">
<metadata>
Created by potrace 1.14, written by Peter Selinger 2001-2017
</metadata>
<g transform="translate(0.000000,256.000000) scale(0.100000,-0.100000)"
fill="#000000" stroke="none">
<path d="M0 1280 l0 -1280 1280 0 1280 0 0 1280 0 1280 -1280 0 -1280 0 0
-1280z m1883 612 c14 -15 15 -21 3 -38 -7 -10 -16 -37 -20 -59 -9 -44 -19 -55
-55 -55 -23 0 -23 -1 -8 -18 30 -33 13 -67 -17 -36 -9 9 -24 13 -33 10 -14 -6
-14 -8 1 -24 9 -10 16 -24 16 -30 0 -15 -26 -16 -35 -2 -12 19 -23 10 -101
-76 -67 -73 -76 -88 -66 -102 53 -73 66 -166 33 -237 -10 -22 -43 -64 -73 -93
-54 -52 -54 -53 -73 -32 -35 39 -85 15 -140 -66 -30 -43 -33 -104 -8 -129 15
-16 15 -20 -8 -62 -13 -25 -55 -78 -94 -118 -79 -82 -118 -97 -196 -74 -62 18
-90 39 -203 148 -112 109 -146 167 -146 246 0 77 45 135 175 226 47 33 62 39
75 30 63 -46 114 -36 184 39 52 55 55 71 25 101 l-21 21 53 54 c95 96 201 118
289 60 l37 -24 73 73 c70 71 73 75 57 93 -33 37 -12 58 25 25 14 -12 21 -14
30 -5 9 9 7 16 -5 30 -33 36 -12 58 25 26 15 -14 20 -15 33 -4 9 7 13 20 10
28 -10 27 22 62 58 62 18 0 42 7 53 15 25 19 28 18 47 -3z"/>
</g>
</svg>
